<?xml version="1.0" encoding="utf-8"?>
<!-- Generator: Adobe Illustrator 16.0.0, SVG Export Plug-In . SVG Version: 6.00 Build 0)  -->
<!DOCTYPE svg PUBLIC "-//W3C//DTD SVG 1.1//EN" "http://www.w3.org/Graphics/SVG/1.1/DTD/svg11.dtd">
<svg version="1.1" id="Layer_1" xmlns="http://www.w3.org/2000/svg" xmlns:xlink="http://www.w3.org/1999/xlink" x="0px" y="0px"
	 width="1000px" height="314.032px" viewBox="0 0 1000 314.032" enable-background="new 0 0 1000 314.032" xml:space="preserve">
<g>
	<polygon fill-rule="evenodd" clip-rule="evenodd" fill="#4E2105" points="0,6.143 993.554,18.808 977.588,211.337 66.749,314.032 
		0,6.143 	"/>
	<polygon fill-rule="evenodd" clip-rule="evenodd" fill="#E97218" points="4.192,0 1000,12.25 984.06,204.533 70.853,307.492 
		4.192,0 	"/>
	<path fill-rule="evenodd" clip-rule="evenodd" fill="#4E2105" d="M138.531,107.409c10.908-2.066,21.84-4.111,28.463-5.273
		c17.097-3,54.844-9.1,61.313-9.992c6.462-0.891,7.802-3.268,6.465-7.935c-2.038-7.149-4.941-13.205-9.727-19.279
		c-3.462-4.395-6.917-6.749-11.59-7.795c-4.97-1.114-10.97-0.595-16.034-0.307C167.676,58.517,92.896,65.447,72.29,68.027
		c-3.594,0.449-9.116,0.882-10.495,4.893c-0.678,1.974-0.291,4.58,0.452,8.064c0.878,4.288,3.013,14.264,6.042,22.505
		c2.077,5.645,4.237,10.237,10.137,12.397c2.609,0.956,5.797,1.186,10.954,0.617c0.55,1.14,0.934,2.438,1.024,3.901
		c0.452,7.199,0.481,81.884-0.287,94.36c-0.64,10.408-0.737,19.818-0.737,19.818s-2.505,13.302,10.509,12.468
		c6.972,0,16.466-0.254,21.837-1.026c5.37-0.775,14.432,0.897,14.655-6.297c0.226-7.198,1.001-46.487,1.45-50.989
		c0.339-3.374,0.423-7.259,1.586-10.127c13.24-4.334,36.514-10.211,42.259-11.558c6.817-1.595,9.285-4.205,8.413-12.614
		c-0.869-8.409-3.914-14.354-10.295-17.688c-6.378-3.336-11.458-2.464-20.155-1.886c-4.318,0.287-13.479,1.253-21.624,2.154
		C137.882,128.94,137.792,115.083,138.531,107.409L138.531,107.409z M203.077,112.935c0.246,22.247,1.179,58.161,3.827,79.714
		c1.069,8.691,6.563,16.922,16.822,23.052c8.229,4.915,17.158,6.623,26.714,6.09c9.103-0.507,20.002-2.593,28.089-7.976
		c7.596-5.061,15.672-13.438,16.043-32.113s0.146-44.04-0.035-52.917c-0.197-9.682-0.743-23.335-0.743-23.335
		s-1.252-6.288-15.915-5.383c-7.24,0.362-14.477,0.865-17.189,4.124c-1.902,2.29-0.821,8.345-0.64,15.045
		c0.184,6.698,1.45,44.717,1.631,50.508c0.181,5.793,0.346,16.999-2.551,19.896c-2.897,2.9-8.875,2.903-11.787,1.163
		c-3.52-2.102-3.678-3.582-4.224-10.098c-0.54-6.517-1.589-39.925-1.77-48.977c-0.178-9.052-0.291-23.426-0.291-25.054
		c0-1.628,0.18-4.166-5.794-5.609c-5.248-1.272-27.269-0.836-30.944,3.381C202.947,106.021,202.974,107.965,203.077,112.935
		L203.077,112.935z M383.792,199.292c0,0,1.324,6.872,8.984,12.156c2.774,2.102,4.573,3.358,7.134,4.032
		c3.5,0.918,9.488-1.582,14.79-2.069c9.511-1.795,24.359-5.651,30.912-6.602c5.287-1.588,9.504-2.803,8.872-6.817
		c-0.239-4.363-10.088-15.733-11.871-16.55c-2.536-1.163-3.966-2.009-8.826-1.798c-4.86,0.213-10.156,1.269-13.96,1.902
		c-1.056-4.757,2.322-25.845,2.583-31.868c0.143-2.021,0.705-6.617,1.205-12.488c0.988-11.61,2.066-26.517,1.44-30.795
		c-0.317-5.216-3.478-7.938-15.792-9.252c-12.789-1.159-21.294,0.898-24.992,3.485c-3.381,2.115-3.911,4.121-3.808,7.611
		c0.11,3.488,0.32,18.078,0.533,26.533C381.206,145.226,382.313,182.593,383.792,199.292L383.792,199.292z M308.929,199.767
		c0,0,2.432,7.501,9.304,12.468c6.869,4.971,10.99,4.864,20.187,4.018c9.194-0.846,24.201-3.911,29.487-5.496
		c5.283-1.582,8.555-2.642,7.925-6.659c-0.629-4.014-1.476-8.664-2.642-11.626c-1.163-2.958-2.112-5.81-4.65-6.975
		c-2.536-1.163-4.438-2.009-9.301-1.799c-4.86,0.213-12.365,0.953-16.17,0.953c-1.056-4.757,1.056-26,1.479-32.022
		c0.139-2.025,0.701-6.62,1.202-12.488c0.988-11.613,2.07-27.311,1.44-31.59c-0.788-5.374-1.266-9.514-13.425-10.04
		c-12.155-0.526-20.503,0.739-23.887,2.854c-3.378,2.112-3.911,4.121-3.804,7.609c0.106,3.488,0.636,19.344,0.846,27.798
		C307.134,145.226,307.45,183.064,308.929,199.767L308.929,199.767z"/>
	<path fill-rule="evenodd" clip-rule="evenodd" fill="#FFFFFF" d="M395.473,183.716c0,0,1.328,6.872,8.988,12.155
		c2.771,2.103,4.569,3.355,7.133,4.031c3.498,0.92,9.485-1.58,14.791-2.067c9.507-1.795,24.356-5.647,30.909-6.604
		c5.287-1.583,9.504-2.8,8.871-6.814c-0.235-4.363-10.085-15.734-11.867-16.551c-2.539-1.163-3.966-2.009-8.83-1.799
		c-4.86,0.213-10.153,1.269-13.957,1.902c-1.06-4.757,2.318-25.845,2.583-31.868c0.142-2.021,0.701-6.617,1.202-12.488
		c0.988-11.61,2.07-26.517,1.44-30.796c-0.313-5.215-3.478-7.938-15.792-9.255c-12.788-1.156-21.294,0.897-24.992,3.487
		c-3.381,2.112-3.911,4.121-3.804,7.609c0.107,3.487,0.316,18.081,0.53,26.536S393.994,167.017,395.473,183.716L395.473,183.716z
		 M150.211,91.831c10.912-2.063,21.844-4.108,28.464-5.271c17.096-3,54.848-9.1,61.313-9.992c6.465-0.891,7.802-3.268,6.469-7.938
		c-2.041-7.147-4.941-13.199-9.73-19.276c-3.459-4.396-6.915-6.75-11.59-7.796c-4.97-1.114-10.97-0.594-16.031-0.307
		c-29.749,1.689-104.525,8.616-125.135,11.2c-3.594,0.449-9.113,0.881-10.492,4.893c-0.682,1.973-0.294,4.579,0.449,8.063
		c0.878,4.289,3.013,14.264,6.042,22.506c2.076,5.645,4.237,10.233,10.137,12.397c2.613,0.956,5.797,1.188,10.954,0.617
		c0.552,1.14,0.933,2.438,1.023,3.901c0.452,7.198,0.481,81.884-0.284,94.359c-0.642,10.412-0.736,19.819-0.736,19.819
		s-2.509,13.302,10.505,12.469c6.972,0,16.467-0.255,21.84-1.027c5.371-0.774,14.429,0.897,14.655-6.298
		c0.222-7.197,0.998-46.486,1.446-50.984c0.339-3.378,0.426-7.263,1.586-10.131c13.243-4.334,36.518-10.215,42.263-11.558
		c6.814-1.595,9.281-4.205,8.413-12.614c-0.872-8.409-3.917-14.355-10.298-17.691c-6.378-3.333-11.455-2.46-20.155-1.882
		c-4.314,0.287-13.479,1.253-21.624,2.154C149.563,113.365,149.476,99.507,150.211,91.831L150.211,91.831z M214.76,97.36
		c0.246,22.247,1.175,58.161,3.827,79.717c1.065,8.684,6.559,16.919,16.818,23.047c8.232,4.916,17.158,6.621,26.717,6.091
		c9.101-0.507,20-2.593,28.086-7.98c7.596-5.057,15.675-13.434,16.046-32.11c0.369-18.675,0.146-44.039-0.035-52.917
		c-0.2-9.682-0.746-23.335-0.746-23.335s-1.25-6.288-15.911-5.383c-7.244,0.361-14.48,0.865-17.189,4.124
		c-1.906,2.289-0.824,8.345-0.64,15.045c0.181,6.698,1.447,44.717,1.63,50.507c0.178,5.793,0.342,17-2.554,19.896
		s-8.874,2.903-11.787,1.163c-3.517-2.103-3.678-3.584-4.221-10.102c-0.542-6.514-1.592-39.918-1.77-48.974
		c-0.181-9.052-0.294-23.422-0.294-25.054c0-1.63,0.181-4.166-5.793-5.612c-5.248-1.27-27.269-0.833-30.944,3.384
		C214.631,90.442,214.654,92.393,214.76,97.36L214.76,97.36z M320.61,184.188c0,0,2.432,7.505,9.301,12.475
		c6.872,4.967,10.996,4.86,20.19,4.014c9.194-0.842,24.201-3.911,29.488-5.497c5.286-1.582,8.555-2.641,7.924-6.658
		c-0.63-4.014-1.476-8.665-2.638-11.626c-1.166-2.961-2.115-5.81-4.65-6.976c-2.539-1.163-4.44-2.008-9.301-1.799
		c-4.864,0.213-12.369,0.953-16.173,0.953c-1.056-4.757,1.056-26,1.479-32.026c0.139-2.022,0.704-6.617,1.201-12.485
		c0.992-11.613,2.07-27.308,1.44-31.59c-0.788-5.374-1.266-9.514-13.421-10.04s-20.507,0.74-23.888,2.855
		c-3.381,2.112-3.911,4.124-3.804,7.608c0.104,3.488,0.633,19.344,0.846,27.799C318.814,129.65,319.131,167.489,320.61,184.188
		L320.61,184.188z"/>
	<path fill-rule="evenodd" clip-rule="evenodd" fill="#4E2105" d="M663.834,86.07c0,0-3.895-3.02-8.215-3.54
		c-4.321-0.52-5.807-0.391-7.906-0.52c-1.898-0.517-6.942,1.818-9.307,3.375c-1.673,1.456-7.931,6.236-12.253,14.709
		c-4.631,8.015-10.992,26.052-8.951,46.733c0.304,3.319,0.252,5.806,0.698,8.984c1.82,12.859,6.038,25.108,17.541,33.205
		c4.67,3.291,11.458,5.425,18.427,6.746c5.394,1.017,11.013,1.25,16.839,0.355c12.891-1.024,26.357-7.621,33.598-26.768
		c4.8-11.7,5.891-32.287,3.979-41.73c-1.614-9.546-2.39-16.519-7.653-23.713c-5.36-7.783-11.31-12.853-22.173-17.025
		C672.792,85.256,668.731,85.569,663.834,86.07L663.834,86.07z M524.597,210.188c-0.388-0.259-0.976-19.832-1.389-25.377
		c-0.42-5.541-1.376-9.888,2.041-10.305c3.416-0.417,12.795-0.972,23.451-1.876c10.657-0.904,15.631-0.119,15.631-0.119
		s3.19-1.524,2.215,6.794c-0.969,8.319-2.39,28.891-2.81,33.602c-0.414,4.712-2.642,13.299,3.959,15.536
		c6.595,2.238,9.049,1.619,23.245,1.222c8.016-0.223,11.917-0.759,14.384-3.143c1.912-1.841,3.41-5.419,3.223-8.273
		c-0.426-6.55-0.497-25.713-0.361-36.528c0.143-10.815,0.84-45.641,0.84-52.435c0-6.795,0.769-40.552,0.672-45.125
		c-0.098-4.592,0.891-8.742,1.446-14.009c0.556-5.27,0.969-11.693,0.549-16.127c-0.413-4.437-2.131-11.215-8.933-11.215
		c-6.788,0-7.898,0.287-13.169,0.148c-5.271-0.135-12.866-0.646-16.645,0.904c-3.778,1.553-6.148,3.698-6.271,10.492
		c-0.116,6.794,0.375,40.38,0.556,48.024c0.2,8.267,0.278,28.857,0.42,31.631c0.136,2.774,0.724,8.597-1.356,8.597
		c-2.086,0-21.759,2.91-28.954,3.901c-7.195,0.988-12.84,1.133-12.84,1.133s-2.507,0.881-2.1-4.146
		c0.407-5.028,3.914-70.226,3.914-75.493c0-5.271,0.394-15.937,0.394-16.77c0-0.83,0.323-4.244-5.503-6.74
		c-5.819-2.493-7.918-4.037-15.824-3.346c-7.901,0.694-12.791-0.12-19.098,1.35c-6.307,1.469-9.346,4.014-9.32,9.568
		c0.029,5.554,2.926,74.543,3.343,84.248c0.417,9.708-0.575,25.144-1.102,30.133c-0.526,4.993-1.405,29.762-1.544,36.557
		c-0.139,6.794-1.95,19.757,1.257,22.641c3.207,2.885,11.196,6.766,22.428,6.075c11.231-0.694,19.131-2.287,21.76-7.46
		C525.727,219.082,524.74,215.736,524.597,210.188L524.597,210.188z M895.517,174.422c-0.084-0.323-3.017-68.166-2.854-76.908
		c0.161-8.745-1.279-12.775,4.463-14.813c5.735-2.035,38.062-5.212,50.727-5.513c12.666-0.297,13.415,1.686,15.515,5.248
		c2.596,4.396,2.958,9.282-0.536,11.914c-6.162,4.65-11.903,5.829-28.399,11.131c-1.104,3.084-3.598,9.052-4.708,23.801
		c2.757-0.365,9.268-1.812,12.161-2.425c2.899-0.617,7.434-1.292,9.029,2.7c1.589,3.992,1.337,8.613-1.576,11.368
		c-2.912,2.751-17.019,6.433-20.577,7.447c-0.814,3.4-2.448,10.75-2.429,20.419c2.267-0.485,8.423-1.783,10.527-1.783
		c2.106,0,8.055-1.13,10.968,0.649c2.919,1.78,4.773,6.717,1.809,11.939c-2.965,5.222-11.349,8.913-17.826,10.857
		c-6.472,1.944-11.536,2.606-15.191,2.768c-3.655,0.161-6.297-2.574-11.174-5.648C900.561,184.495,896.169,181.156,895.517,174.422
		L895.517,174.422z M823.521,192.323c-0.168-0.055,10.806,4.599,18.007,5.82c7.201,1.218,8.752,1.218,16.509-0.999
		c7.757-2.215,16.573-9.64,21.494-13.963c5.633-4.944,10.703-11.51,9.863-20.497c-0.859-9.213-4.152-15.369-9.863-20.61
		c-4.042-3.711-9.636-6.973-15.397-8.868c-8.421-2.768-15.294-3.879-18.949-6.982c-3.656-3.1-4.986-7.091-2.771-11.409
		c2.216-4.318,4.211-5.542,6.316-6.649c2.101-1.108,4.87-1.218,5.536,2.551c0.665,3.766-0.22,9.527,2.441,11.632
		c2.66,2.105,10.856,5.319,16.509,2.548c5.657-2.771,7.428-2.99,6.652-14.07c-0.775-11.083-4.767-19.725-8.532-25.819
		s-10.418-12.294-21.274-10.748c-7.958,1.134-15.631,5.409-23.491,12.298c-5.322,4.666-9.96,12.149-13.286,20.861
		c-4.844,12.692-5.289,27.889,4.528,36.87c10.818,7.867,21.501,7.731,30.472,10.528c2.997,0.937,5.129,4.23,4.212,7.201
		c-0.989,3.207-1.88,4.873-3.437,5.871c-1.55,0.998-2.215,1.331-7.757-0.998c-5.535-2.325-16.618-8.751-23.49-3.433
		c-6.866,5.315-10.638,12.188-9.308,16.512C809.835,184.292,815.822,189.83,823.521,192.323L823.521,192.323z M717.81,174.616
		c0-0.223,5.729,17.193,24.983,21.649c19.26,4.457,28.096,0.588,32.429-0.739c4.327-1.331,12.995-4.973,18.866-13.253
		c5.871-8.283,5.729-10.463,6.297-14.377c0.563-3.914,2.268-33.327,2.429-40.012c0.155-6.688,1.015-36.857,1.105-38.549
		c0.09-1.696,0.517-6.805-3.101-7.715c-3.617-0.914-10.657-2.945-17.794-1.699c-7.131,1.253-10.645,2.797-11.503,5.739
		c-0.853,2.942,0.808,28.196,1.253,33.098c0.445,4.902,1.518,29.6,1.427,32.633c-0.09,3.032-0.181,10.253-2.59,12.836
		c-2.402,2.59-4.224,4.344-9.397,4.344c-5.173,0-7.847-0.646-10.166-4.479c-2.318-3.836-4.566-9.311-3.139-26.342
		s2.99-26.103,3.171-32.791c0.175-6.688,0.459-12.604,0.375-13.938c-0.091-1.337,1.42-8.687-7.576-9.975
		c-9.01-1.292-16.264-2.519-21.249-1.337c-4.993,1.179-9.63,2.474-9.63,8.539c0,6.061,0.484,28.928,0.574,34.367
		C714.666,128.052,716.203,168.865,717.81,174.616L717.81,174.616z M677.618,148.436c0-15.517-0.271-23.2-4.521-37.693
		c-1.511-5.177-5.754-8.403-8.254-0.016c-2.15,7.23-4.767,24.32-4.308,38.633c0.465,14.316,1.847,24.934,4.463,28.015
		c2.622,3.078,5.703,3.078,7.389-0.155C674.079,173.99,677.004,165.371,677.618,148.436L677.618,148.436z"/>
	<path fill-rule="evenodd" clip-rule="evenodd" fill="#FFFFFF" d="M907.195,158.847c-0.077-0.323-3.011-68.166-2.849-76.911
		c0.161-8.742-1.279-12.772,4.456-14.81c5.736-2.034,38.068-5.212,50.734-5.512c12.665-0.297,13.408,1.686,15.514,5.248
		c2.597,4.395,2.951,9.281-0.536,11.917c-6.162,4.647-11.903,5.826-28.406,11.128c-1.098,3.084-3.591,9.052-4.701,23.8
		c2.751-0.365,9.262-1.812,12.161-2.428c2.9-0.614,7.434-1.289,9.03,2.7c1.588,3.992,1.336,8.616-1.576,11.371
		c-2.913,2.751-17.02,6.433-20.578,7.447c-0.813,3.401-2.448,10.751-2.429,20.419c2.268-0.484,8.416-1.782,10.521-1.782
		c2.112,0,8.055-1.13,10.974,0.649s4.773,6.717,1.809,11.939s-11.349,8.913-17.826,10.857c-6.479,1.944-11.542,2.606-15.197,2.768
		c-3.656,0.161-6.291-2.571-11.174-5.648S907.853,165.581,907.195,158.847L907.195,158.847z M536.275,194.612
		c-0.388-0.261-0.976-19.832-1.389-25.373c-0.414-5.548-1.376-9.892,2.041-10.309c3.423-0.413,12.794-0.968,23.457-1.876
		c10.657-0.907,15.631-0.12,15.631-0.12s3.185-1.524,2.215,6.795c-0.968,8.319-2.396,28.89-2.81,33.601
		c-0.42,4.712-2.642,13.299,3.953,15.538c6.601,2.234,9.049,1.617,23.252,1.22c8.009-0.223,11.909-0.759,14.384-3.143
		c1.905-1.84,3.409-5.418,3.223-8.27c-0.427-6.552-0.504-25.715-0.362-36.531c0.143-10.815,0.841-45.641,0.841-52.436
		s0.769-40.551,0.665-45.124c-0.098-4.592,0.891-8.742,1.446-14.009c0.556-5.271,0.969-11.694,0.556-16.127
		c-0.414-4.438-2.138-11.216-8.933-11.216s-7.899,0.288-13.17,0.152c-5.271-0.143-12.865-0.649-16.644,0.901
		c-3.785,1.553-6.149,3.697-6.272,10.492c-0.122,6.794,0.369,40.38,0.557,48.021c0.2,8.271,0.277,28.861,0.413,31.635
		c0.142,2.774,0.723,8.597-1.357,8.597c-2.079,0-21.759,2.91-28.947,3.901c-7.195,0.988-12.84,1.134-12.84,1.134
		s-2.513,0.882-2.105-4.146c0.406-5.028,3.914-70.226,3.914-75.494c0-5.27,0.394-15.937,0.394-16.77c0-0.83,0.329-4.24-5.496-6.74
		c-5.826-2.493-7.925-4.037-15.824-3.346c-7.905,0.694-12.795-0.119-19.099,1.35c-6.307,1.469-9.346,4.014-9.32,9.568
		c0.026,5.555,2.923,74.544,3.339,84.249c0.417,9.708-0.575,25.144-1.101,30.133c-0.526,4.993-1.402,29.762-1.543,36.557
		c-0.139,6.795-1.951,19.757,1.256,22.641c3.207,2.884,11.199,6.767,22.425,6.075c11.231-0.695,19.138-2.287,21.76-7.46
		C537.411,203.506,536.417,200.157,536.275,194.612L536.275,194.612z M675.518,70.495c0,0-3.895-3.02-8.222-3.54
		c-4.32-0.52-5.8-0.391-7.898-0.52c-1.905-0.517-6.943,1.818-9.308,3.375c-1.68,1.456-7.931,6.236-12.259,14.71
		c-4.624,8.015-10.986,26.051-8.952,46.732c0.311,3.323,0.252,5.807,0.705,8.984c1.82,12.86,6.032,25.109,17.541,33.208
		c4.67,3.288,11.458,5.422,18.428,6.743c5.393,1.017,11.012,1.25,16.831,0.355c12.892-1.023,26.358-7.621,33.604-26.768
		c4.8-11.7,5.885-32.288,3.979-41.73c-1.614-9.542-2.396-16.518-7.659-23.713c-5.354-7.783-11.31-12.853-22.167-17.025
		C684.47,69.681,680.415,69.994,675.518,70.495L675.518,70.495z M689.302,132.86c0-15.517-0.271-23.2-4.521-37.693
		c-1.518-5.177-5.755-8.403-8.255-0.016c-2.15,7.23-4.772,24.32-4.308,38.633c0.465,14.315,1.847,24.934,4.463,28.015
		c2.616,3.078,5.697,3.078,7.39-0.155C685.762,158.414,688.688,149.792,689.302,132.86L689.302,132.86z M729.495,159.041
		c0-0.223,5.723,17.193,24.982,21.65c19.261,4.459,28.096,0.587,32.423-0.74c4.334-1.327,13.001-4.973,18.872-13.257
		c5.872-8.28,5.729-10.463,6.291-14.374c0.568-3.914,2.274-33.327,2.429-40.015c0.161-6.685,1.021-36.85,1.111-38.546
		c0.084-1.695,0.517-6.804-3.101-7.715c-3.617-0.914-10.663-2.945-17.794-1.699c-7.137,1.25-10.65,2.8-11.503,5.738
		c-0.853,2.942,0.801,28.196,1.246,33.098c0.452,4.902,1.519,29.601,1.428,32.633c-0.091,3.033-0.181,10.253-2.584,12.837
		c-2.408,2.587-4.23,4.344-9.403,4.344c-5.167,0-7.847-0.646-10.159-4.479c-2.319-3.833-4.573-9.311-3.146-26.342
		c1.434-17.032,2.997-26.106,3.171-32.791c0.175-6.688,0.465-12.604,0.375-13.938c-0.091-1.337,1.427-8.688-7.576-9.979
		c-9.004-1.289-16.257-2.516-21.25-1.333c-4.992,1.179-9.63,2.474-9.63,8.538c0,6.062,0.491,28.926,0.575,34.367
		C726.343,112.476,727.886,153.289,729.495,159.041L729.495,159.041z M835.198,176.748c-0.16-0.055,10.806,4.599,18.008,5.819
		c7.208,1.217,8.751,1.214,16.516-0.998c7.75-2.215,16.566-9.64,21.494-13.964c5.632-4.944,10.702-11.509,9.863-20.5
		c-0.866-9.21-4.153-15.365-9.863-20.607c-4.043-3.71-9.643-6.972-15.404-8.868c-8.415-2.768-15.294-3.878-18.949-6.982
		c-3.656-3.1-4.98-7.092-2.765-11.409c2.215-4.318,4.211-5.542,6.31-6.649c2.106-1.108,4.877-1.217,5.542,2.551
		c0.665,3.766-0.22,9.527,2.441,11.632s10.857,5.319,16.509,2.548c5.651-2.768,7.421-2.99,6.646-14.07
		c-0.769-11.083-4.761-19.728-8.533-25.819c-3.765-6.097-10.418-12.294-21.274-10.748c-7.957,1.133-15.63,5.409-23.49,12.297
		c-5.322,4.667-9.96,12.149-13.286,20.862c-4.838,12.691-5.283,27.889,4.534,36.87c10.818,7.867,21.495,7.728,30.473,10.528
		c2.989,0.936,5.122,4.23,4.211,7.202c-0.988,3.207-1.886,4.873-3.437,5.871c-1.55,0.998-2.215,1.331-7.757-0.998
		c-5.541-2.325-16.618-8.752-23.49-3.433c-6.873,5.319-10.638,12.188-9.308,16.512C821.512,168.716,827.5,174.254,835.198,176.748
		L835.198,176.748z"/>
</g>
</svg>
